<svg width="200" height="200" viewBox="0 0 200 200" fill="none" xmlns="http://www.w3.org/2000/svg">
<g clip-path="url(#clip0_1_3)">
<g filter="url(#filter0_d_1_3)">
<path d="M98.5 64L175.51 77.7426L194.53 108.622L141.238 133.385H55.7625L2.4696 108.622L21.4896 77.7426L98.5 64Z" fill="url(#paint0_radial_1_3)" shape-rendering="crispEdges"/>
</g>
<g filter="url(#filter1_d_1_3)">
<path d="M198 110.5C198 158.622 154.338 198 100 198C45.6617 198 2 158.622 2 110.5C2 62.3779 45.6617 23 100 23C154.338 23 198 62.3779 198 110.5Z" stroke="url(#paint1_linear_1_3)" stroke-width="4" shape-rendering="crispEdges"/>
</g>
<g filter="url(#filter2_d_1_3)">
<path d="M36 171V57C38.6667 51 46.4 39.8 56 43C65.6 46.2 70.6667 53.6667 72 57C80.3333 57.66 97.2 63.7839 98 83C98.2731 89.5588 98.2479 97.6057 98.4945 106.104C115.692 137.291 133.426 167.95 138 171C142.81 174.206 149.077 174.021 154 172.949L132 43H160V171C158.561 171.664 156.447 172.416 154 172.949C149.077 174.021 142.81 174.206 138 171C138 173 133.8 174.4 117 164C101.734 154.55 99.1511 128.728 98.4945 106.104C88.6234 88.2029 78.9287 70.128 72 57L47 171H36Z" fill="url(#paint2_radial_1_3)" shape-rendering="crispEdges"/>
</g>
<g filter="url(#filter3_d_1_3)">
<path d="M18.7421 107L29.5901 84.28H35.0621L45.8781 107H40.1501L32.3101 90.68L24.4701 107H18.7421ZM54.2611 102.488H68.5971V107H48.8531V84.6H54.2611V102.488ZM77.5736 102.488H92.3576V107H72.1656V84.6H92.1336V89.112H77.5736V93.56H89.9896V98.04H77.5736V102.488ZM119.683 107H112.739L95.5234 84.6H101.923L107.203 91.256L112.483 84.6H118.851L110.531 95.448L119.683 107ZM104.899 102.616L101.667 107H94.7234L101.507 98.392L104.899 102.616ZM122.916 84.6H128.324V89.112H122.916V84.6ZM122.916 107V92.6H128.324V107H122.916ZM132.814 97.848V84.6H138.222V97.848C138.222 101.08 141.166 102.712 144.142 102.712C147.118 102.712 150.062 101.08 150.062 97.848V84.6H155.47V97.848C155.47 104.472 149.806 107.8 144.142 107.8C138.478 107.8 132.814 104.472 132.814 97.848ZM182.059 87.288L179.435 91.64C177.387 89.848 173.515 88.728 170.507 88.728C168.139 88.728 166.347 89.4 166.347 90.936C166.347 94.84 182.123 91.896 182.123 100.824C182.123 105.752 177.003 107.736 171.435 107.736C166.891 107.736 162.027 106.424 159.307 104.312L161.963 99.832C164.075 101.784 168.587 103 171.979 103C174.347 103 176.203 102.36 176.203 100.952C176.203 96.888 160.491 99.704 160.491 90.84C160.491 85.912 165.099 83.992 170.283 83.992C174.571 83.992 179.243 85.272 182.059 87.288Z" fill="url(#paint3_radial_1_3)" shape-rendering="crispEdges"/>
</g>
</g>
<defs>
<filter id="filter0_d_1_3" x="-5.5304" y="60" width="208.061" height="85.3854" filterUnits="userSpaceOnUse" color-interpolation-filters="sRGB">
<feFlood flood-opacity="0" result="BackgroundImageFix"/>
<feColorMatrix in="SourceAlpha" type="matrix" values="0 0 0 0 0 0 0 0 0 0 0 0 0 0 0 0 0 0 127 0" result="hardAlpha"/>
<feOffset dy="4"/>
<feGaussianBlur stdDeviation="4"/>
<feComposite in2="hardAlpha" operator="out"/>
<feColorMatrix type="matrix" values="0 0 0 0 0 0 0 0 0 0 0 0 0 0 0 0 0 0 0.25 0"/>
<feBlend mode="normal" in2="BackgroundImageFix" result="effect1_dropShadow_1_3"/>
<feBlend mode="normal" in="SourceGraphic" in2="effect1_dropShadow_1_3" result="shape"/>
</filter>
<filter id="filter1_d_1_3" x="-2" y="21" width="204" height="185" filterUnits="userSpaceOnUse" color-interpolation-filters="sRGB">
<feFlood flood-opacity="0" result="BackgroundImageFix"/>
<feColorMatrix in="SourceAlpha" type="matrix" values="0 0 0 0 0 0 0 0 0 0 0 0 0 0 0 0 0 0 127 0" result="hardAlpha"/>
<feMorphology radius="2" operator="erode" in="SourceAlpha" result="effect1_dropShadow_1_3"/>
<feOffset dy="4"/>
<feGaussianBlur stdDeviation="2"/>
<feComposite in2="hardAlpha" operator="out"/>
<feColorMatrix type="matrix" values="0 0 0 0 0 0 0 0 0 0 0 0 0 0 0 0 0 0 0.25 0"/>
<feBlend mode="normal" in2="BackgroundImageFix" result="effect1_dropShadow_1_3"/>
<feBlend mode="normal" in="SourceGraphic" in2="effect1_dropShadow_1_3" result="shape"/>
</filter>
<filter id="filter2_d_1_3" x="28" y="38.4362" width="140" height="147.214" filterUnits="userSpaceOnUse" color-interpolation-filters="sRGB">
<feFlood flood-opacity="0" result="BackgroundImageFix"/>
<feColorMatrix in="SourceAlpha" type="matrix" values="0 0 0 0 0 0 0 0 0 0 0 0 0 0 0 0 0 0 127 0" result="hardAlpha"/>
<feOffset dy="4"/>
<feGaussianBlur stdDeviation="4"/>
<feComposite in2="hardAlpha" operator="out"/>
<feColorMatrix type="matrix" values="0 0 0 0 0.470588 0 0 0 0 0.490196 0 0 0 0 0.905882 0 0 0 1 0"/>
<feBlend mode="normal" in2="BackgroundImageFix" result="effect1_dropShadow_1_3"/>
<feBlend mode="normal" in="SourceGraphic" in2="effect1_dropShadow_1_3" result="shape"/>
</filter>
<filter id="filter3_d_1_3" x="8.74213" y="71.992" width="195.381" height="55.808" filterUnits="userSpaceOnUse" color-interpolation-filters="sRGB">
<feFlood flood-opacity="0" result="BackgroundImageFix"/>
<feColorMatrix in="SourceAlpha" type="matrix" values="0 0 0 0 0 0 0 0 0 0 0 0 0 0 0 0 0 0 127 0" result="hardAlpha"/>
<feOffset dx="6" dy="4"/>
<feGaussianBlur stdDeviation="8"/>
<feComposite in2="hardAlpha" operator="out"/>
<feColorMatrix type="matrix" values="0 0 0 0 0.2 0 0 0 0 0.317647 0 0 0 0 0.72549 0 0 0 1 0"/>
<feBlend mode="normal" in2="BackgroundImageFix" result="effect1_dropShadow_1_3"/>
<feBlend mode="normal" in="SourceGraphic" in2="effect1_dropShadow_1_3" result="shape"/>
</filter>
<radialGradient id="paint0_radial_1_3" cx="0" cy="0" r="1" gradientUnits="userSpaceOnUse" gradientTransform="translate(98.5 100.5) rotate(90) scale(36.5 98.5)">
<stop offset="0.9999" stop-color="#3350B9"/>
<stop offset="1" stop-color="#616161" stop-opacity="0"/>
</radialGradient>
<linearGradient id="paint1_linear_1_3" x1="100" y1="21" x2="100" y2="200" gradientUnits="userSpaceOnUse">
<stop stop-color="#CAE1F5"/>
<stop offset="1" stop-color="#413E67"/>
</linearGradient>
<radialGradient id="paint2_radial_1_3" cx="0" cy="0" r="1" gradientUnits="userSpaceOnUse" gradientTransform="translate(26.5 90.5) rotate(10.008) scale(146.733 138.665)">
<stop stop-color="#383FE3"/>
<stop offset="0.593803" stop-color="#D9D9D9" stop-opacity="0"/>
<stop offset="1" stop-color="#6F73D6"/>
</radialGradient>
<radialGradient id="paint3_radial_1_3" cx="0" cy="0" r="1" gradientUnits="userSpaceOnUse" gradientTransform="translate(100 86.5) rotate(89.7062) scale(97.5013 96.9277)">
<stop offset="0.72417" stop-color="white"/>
<stop offset="1" stop-color="#3351B9" stop-opacity="0"/>
</radialGradient>
<clipPath id="clip0_1_3">
<rect width="200" height="200" fill="white"/>
</clipPath>
</defs>
</svg>
